<?xml version="1.0" encoding="UTF-8" standalone="no"?>
<!DOCTYPE svg PUBLIC "-//W3C//DTD SVG 1.1//EN"
 "http://www.w3.org/Graphics/SVG/1.1/DTD/svg11.dtd">
<!-- Generated by graphviz version 13.0.0 (20250608.1624)
 -->
<!-- Pages: 1 -->
<svg width="788pt" height="128pt"
 viewBox="0.00 0.00 788.00 128.00" xmlns="http://www.w3.org/2000/svg" xmlns:xlink="http://www.w3.org/1999/xlink">
<g id="graph0" class="graph" transform="scale(1 1) rotate(0) translate(4 124)">
<polygon fill="white" stroke="none" points="-4,4 -4,-124 783.75,-124 783.75,4 -4,4"/>
<!-- 4628675120 -->
<g id="node1" class="node">
<title>4628675120</title>
<polygon fill="none" stroke="black" points="226.25,-83.5 226.25,-119.5 328,-119.5 328,-83.5 226.25,-83.5"/>
<text xml:space="preserve" text-anchor="middle" x="237.25" y="-96.7" font-family="Times,serif" font-size="14.00">c</text>
<polyline fill="none" stroke="black" points="248.25,-84 248.25,-119.5"/>
<text xml:space="preserve" text-anchor="middle" x="288.12" y="-96.7" font-family="Times,serif" font-size="14.00">data 10.000</text>
</g>
<!-- 4628674448+ -->
<g id="node10" class="node">
<title>4628674448+</title>
<ellipse fill="none" stroke="black" cx="391" cy="-73.5" rx="27" ry="18"/>
<text xml:space="preserve" text-anchor="middle" x="391" y="-68.45" font-family="Times,serif" font-size="14.00">+</text>
</g>
<!-- 4628675120&#45;&gt;4628674448+ -->
<g id="edge6" class="edge">
<title>4628675120&#45;&gt;4628674448+</title>
<path fill="none" stroke="black" d="M328.5,-88.89C337.17,-86.72 346.02,-84.51 354.21,-82.46"/>
<polygon fill="black" stroke="black" points="354.94,-85.88 363.79,-80.06 353.24,-79.09 354.94,-85.88"/>
</g>
<!-- 4628676224 -->
<g id="node2" class="node">
<title>4628676224</title>
<polygon fill="none" stroke="black" points="0,-56.5 0,-92.5 100.25,-92.5 100.25,-56.5 0,-56.5"/>
<text xml:space="preserve" text-anchor="middle" x="11.38" y="-69.7" font-family="Times,serif" font-size="14.00">b</text>
<polyline fill="none" stroke="black" points="22.75,-57 22.75,-92.5"/>
<text xml:space="preserve" text-anchor="middle" x="61.5" y="-69.7" font-family="Times,serif" font-size="14.00">data &#45;3.000</text>
</g>
<!-- 4628674208* -->
<g id="node6" class="node">
<title>4628674208*</title>
<ellipse fill="none" stroke="black" cx="163.25" cy="-46.5" rx="27" ry="18"/>
<text xml:space="preserve" text-anchor="middle" x="163.25" y="-41.45" font-family="Times,serif" font-size="14.00">*</text>
</g>
<!-- 4628676224&#45;&gt;4628674208* -->
<g id="edge7" class="edge">
<title>4628676224&#45;&gt;4628674208*</title>
<path fill="none" stroke="black" d="M100.51,-62.06C109.26,-59.85 118.21,-57.6 126.49,-55.51"/>
<polygon fill="black" stroke="black" points="127.34,-58.9 136.19,-53.07 125.63,-52.12 127.34,-58.9"/>
</g>
<!-- 4628673680 -->
<g id="node3" class="node">
<title>4628673680</title>
<polygon fill="none" stroke="black" points="678,-27.5 678,-63.5 779.75,-63.5 779.75,-27.5 678,-27.5"/>
<text xml:space="preserve" text-anchor="middle" x="690.12" y="-40.7" font-family="Times,serif" font-size="14.00">L</text>
<polyline fill="none" stroke="black" points="702.25,-28 702.25,-63.5"/>
<text xml:space="preserve" text-anchor="middle" x="741" y="-40.7" font-family="Times,serif" font-size="14.00">data &#45;8.000</text>
</g>
<!-- 4628673680* -->
<g id="node4" class="node">
<title>4628673680*</title>
<ellipse fill="none" stroke="black" cx="615" cy="-45.5" rx="27" ry="18"/>
<text xml:space="preserve" text-anchor="middle" x="615" y="-40.45" font-family="Times,serif" font-size="14.00">*</text>
</g>
<!-- 4628673680*&#45;&gt;4628673680 -->
<g id="edge1" class="edge">
<title>4628673680*&#45;&gt;4628673680</title>
<path fill="none" stroke="black" d="M642.23,-45.5C649.51,-45.5 657.74,-45.5 666.14,-45.5"/>
<polygon fill="black" stroke="black" points="666.13,-49 676.13,-45.5 666.13,-42 666.13,-49"/>
</g>
<!-- 4628674208 -->
<g id="node5" class="node">
<title>4628674208</title>
<polygon fill="none" stroke="black" points="227.38,-28.5 227.38,-64.5 326.88,-64.5 326.88,-28.5 227.38,-28.5"/>
<text xml:space="preserve" text-anchor="middle" x="238.38" y="-41.7" font-family="Times,serif" font-size="14.00">e</text>
<polyline fill="none" stroke="black" points="249.38,-29 249.38,-64.5"/>
<text xml:space="preserve" text-anchor="middle" x="288.12" y="-41.7" font-family="Times,serif" font-size="14.00">data &#45;6.000</text>
</g>
<!-- 4628674208&#45;&gt;4628674448+ -->
<g id="edge4" class="edge">
<title>4628674208&#45;&gt;4628674448+</title>
<path fill="none" stroke="black" d="M327.2,-58.34C336.24,-60.52 345.52,-62.77 354.08,-64.83"/>
<polygon fill="black" stroke="black" points="353.21,-68.22 363.75,-67.17 354.85,-61.42 353.21,-68.22"/>
</g>
<!-- 4628674208*&#45;&gt;4628674208 -->
<g id="edge2" class="edge">
<title>4628674208*&#45;&gt;4628674208</title>
<path fill="none" stroke="black" d="M190.48,-46.5C198.2,-46.5 206.98,-46.5 215.91,-46.5"/>
<polygon fill="black" stroke="black" points="215.72,-50 225.72,-46.5 215.72,-43 215.72,-50"/>
</g>
<!-- 4628672672 -->
<g id="node7" class="node">
<title>4628672672</title>
<polygon fill="none" stroke="black" points="454,-0.5 454,-36.5 552,-36.5 552,-0.5 454,-0.5"/>
<text xml:space="preserve" text-anchor="middle" x="464.25" y="-13.7" font-family="Times,serif" font-size="14.00">f</text>
<polyline fill="none" stroke="black" points="474.5,-1 474.5,-36.5"/>
<text xml:space="preserve" text-anchor="middle" x="513.25" y="-13.7" font-family="Times,serif" font-size="14.00">data &#45;2.000</text>
</g>
<!-- 4628672672&#45;&gt;4628673680* -->
<g id="edge5" class="edge">
<title>4628672672&#45;&gt;4628673680*</title>
<path fill="none" stroke="black" d="M552.25,-30.34C560.96,-32.48 569.9,-34.67 578.17,-36.71"/>
<polygon fill="black" stroke="black" points="577.33,-40.1 587.87,-39.09 579,-33.3 577.33,-40.1"/>
</g>
<!-- 4628658928 -->
<g id="node8" class="node">
<title>4628658928</title>
<polygon fill="none" stroke="black" points="2.62,-1.5 2.62,-37.5 97.62,-37.5 97.62,-1.5 2.62,-1.5"/>
<text xml:space="preserve" text-anchor="middle" x="13.62" y="-14.7" font-family="Times,serif" font-size="14.00">a</text>
<polyline fill="none" stroke="black" points="24.62,-2 24.62,-37.5"/>
<text xml:space="preserve" text-anchor="middle" x="61.12" y="-14.7" font-family="Times,serif" font-size="14.00">data 2.000</text>
</g>
<!-- 4628658928&#45;&gt;4628674208* -->
<g id="edge9" class="edge">
<title>4628658928&#45;&gt;4628674208*</title>
<path fill="none" stroke="black" d="M97.93,-30.87C107.44,-33.18 117.3,-35.58 126.36,-37.78"/>
<polygon fill="black" stroke="black" points="125.3,-41.12 135.85,-40.08 126.96,-34.32 125.3,-41.12"/>
</g>
<!-- 4628674448 -->
<g id="node9" class="node">
<title>4628674448</title>
<polygon fill="none" stroke="black" points="455.12,-55.5 455.12,-91.5 550.88,-91.5 550.88,-55.5 455.12,-55.5"/>
<text xml:space="preserve" text-anchor="middle" x="466.5" y="-68.7" font-family="Times,serif" font-size="14.00">d</text>
<polyline fill="none" stroke="black" points="477.88,-56 477.88,-91.5"/>
<text xml:space="preserve" text-anchor="middle" x="514.38" y="-68.7" font-family="Times,serif" font-size="14.00">data 4.000</text>
</g>
<!-- 4628674448&#45;&gt;4628673680* -->
<g id="edge8" class="edge">
<title>4628674448&#45;&gt;4628673680*</title>
<path fill="none" stroke="black" d="M551.29,-61.46C560.26,-59.18 569.5,-56.83 578.05,-54.65"/>
<polygon fill="black" stroke="black" points="578.88,-58.05 587.71,-52.19 577.16,-51.27 578.88,-58.05"/>
</g>
<!-- 4628674448+&#45;&gt;4628674448 -->
<g id="edge3" class="edge">
<title>4628674448+&#45;&gt;4628674448</title>
<path fill="none" stroke="black" d="M418.35,-73.5C425.95,-73.5 434.56,-73.5 443.3,-73.5"/>
<polygon fill="black" stroke="black" points="443.28,-77 453.28,-73.5 443.28,-70 443.28,-77"/>
</g>
</g>
</svg>
